<mxfile host="app.diagrams.net" agent="Mozilla/5.0 (Windows NT 10.0; Win64; x64) AppleWebKit/537.36 (KHTML, like Gecko) Chrome/128.0.0.0 Safari/537.36" version="24.7.8">
  <diagram name="PÃ¡gina-1" id="qV68vRLcoIlHiKxW5ZC5">
    <mxGraphModel dx="1290" dy="565" grid="1" gridSize="10" guides="1" tooltips="1" connect="1" arrows="1" fold="1" page="1" pageScale="1" pageWidth="1200" pageHeight="1920" math="0" shadow="0">
      <root>
        <mxCell id="0" />
        <mxCell id="1" parent="0" />
        <mxCell id="GvtacGix6wBGXma_RsV8-18" style="edgeStyle=orthogonalEdgeStyle;rounded=0;orthogonalLoop=1;jettySize=auto;html=1;exitX=1;exitY=0.5;exitDx=0;exitDy=0;entryX=0;entryY=0.5;entryDx=0;entryDy=0;" edge="1" parent="1" source="GvtacGix6wBGXma_RsV8-1" target="GvtacGix6wBGXma_RsV8-2">
          <mxGeometry relative="1" as="geometry" />
        </mxCell>
        <mxCell id="GvtacGix6wBGXma_RsV8-1" value="" style="ellipse;whiteSpace=wrap;html=1;aspect=fixed;" vertex="1" parent="1">
          <mxGeometry x="290" y="320" width="40" height="40" as="geometry" />
        </mxCell>
        <mxCell id="GvtacGix6wBGXma_RsV8-9" style="edgeStyle=orthogonalEdgeStyle;rounded=0;orthogonalLoop=1;jettySize=auto;html=1;exitX=1;exitY=0.5;exitDx=0;exitDy=0;entryX=0;entryY=0.5;entryDx=0;entryDy=0;" edge="1" parent="1" source="GvtacGix6wBGXma_RsV8-2" target="GvtacGix6wBGXma_RsV8-6">
          <mxGeometry relative="1" as="geometry" />
        </mxCell>
        <mxCell id="GvtacGix6wBGXma_RsV8-10" style="edgeStyle=orthogonalEdgeStyle;rounded=0;orthogonalLoop=1;jettySize=auto;html=1;entryX=0.5;entryY=1;entryDx=0;entryDy=0;" edge="1" parent="1" source="GvtacGix6wBGXma_RsV8-2" target="GvtacGix6wBGXma_RsV8-4">
          <mxGeometry relative="1" as="geometry" />
        </mxCell>
        <mxCell id="GvtacGix6wBGXma_RsV8-12" style="edgeStyle=orthogonalEdgeStyle;rounded=0;orthogonalLoop=1;jettySize=auto;html=1;exitX=0.5;exitY=0;exitDx=0;exitDy=0;entryX=0.5;entryY=1;entryDx=0;entryDy=0;" edge="1" parent="1" source="GvtacGix6wBGXma_RsV8-2" target="GvtacGix6wBGXma_RsV8-3">
          <mxGeometry relative="1" as="geometry" />
        </mxCell>
        <mxCell id="GvtacGix6wBGXma_RsV8-2" value="Seleccionar Mesa" style="rounded=1;whiteSpace=wrap;html=1;" vertex="1" parent="1">
          <mxGeometry x="400" y="310" width="120" height="60" as="geometry" />
        </mxCell>
        <mxCell id="GvtacGix6wBGXma_RsV8-13" style="edgeStyle=orthogonalEdgeStyle;rounded=0;orthogonalLoop=1;jettySize=auto;html=1;" edge="1" parent="1" source="GvtacGix6wBGXma_RsV8-3" target="GvtacGix6wBGXma_RsV8-2">
          <mxGeometry relative="1" as="geometry" />
        </mxCell>
        <mxCell id="GvtacGix6wBGXma_RsV8-15" style="edgeStyle=orthogonalEdgeStyle;rounded=0;orthogonalLoop=1;jettySize=auto;html=1;exitX=1;exitY=0.5;exitDx=0;exitDy=0;entryX=0;entryY=0.5;entryDx=0;entryDy=0;" edge="1" parent="1" source="GvtacGix6wBGXma_RsV8-3" target="GvtacGix6wBGXma_RsV8-5">
          <mxGeometry relative="1" as="geometry" />
        </mxCell>
        <mxCell id="GvtacGix6wBGXma_RsV8-3" value="Mesas Disponibles" style="rounded=1;whiteSpace=wrap;html=1;" vertex="1" parent="1">
          <mxGeometry x="400" y="100" width="120" height="60" as="geometry" />
        </mxCell>
        <mxCell id="GvtacGix6wBGXma_RsV8-14" style="edgeStyle=orthogonalEdgeStyle;rounded=0;orthogonalLoop=1;jettySize=auto;html=1;" edge="1" parent="1" source="GvtacGix6wBGXma_RsV8-4">
          <mxGeometry relative="1" as="geometry">
            <mxPoint x="460" y="240" as="targetPoint" />
          </mxGeometry>
        </mxCell>
        <mxCell id="GvtacGix6wBGXma_RsV8-4" value="Realizar Recerva" style="rounded=1;whiteSpace=wrap;html=1;" vertex="1" parent="1">
          <mxGeometry x="600" y="210" width="120" height="60" as="geometry" />
        </mxCell>
        <mxCell id="GvtacGix6wBGXma_RsV8-11" style="edgeStyle=orthogonalEdgeStyle;rounded=0;orthogonalLoop=1;jettySize=auto;html=1;entryX=0.5;entryY=0;entryDx=0;entryDy=0;" edge="1" parent="1" source="GvtacGix6wBGXma_RsV8-5" target="GvtacGix6wBGXma_RsV8-6">
          <mxGeometry relative="1" as="geometry" />
        </mxCell>
        <mxCell id="GvtacGix6wBGXma_RsV8-5" value="Tomar Orden" style="rounded=1;whiteSpace=wrap;html=1;" vertex="1" parent="1">
          <mxGeometry x="640" y="100" width="120" height="60" as="geometry" />
        </mxCell>
        <mxCell id="GvtacGix6wBGXma_RsV8-25" style="edgeStyle=orthogonalEdgeStyle;rounded=0;orthogonalLoop=1;jettySize=auto;html=1;" edge="1" parent="1" source="GvtacGix6wBGXma_RsV8-6" target="GvtacGix6wBGXma_RsV8-22">
          <mxGeometry relative="1" as="geometry" />
        </mxCell>
        <mxCell id="GvtacGix6wBGXma_RsV8-6" value="Tomar Orden" style="rounded=1;whiteSpace=wrap;html=1;" vertex="1" parent="1">
          <mxGeometry x="770" y="310" width="120" height="60" as="geometry" />
        </mxCell>
        <mxCell id="GvtacGix6wBGXma_RsV8-24" style="edgeStyle=orthogonalEdgeStyle;rounded=0;orthogonalLoop=1;jettySize=auto;html=1;" edge="1" parent="1" source="GvtacGix6wBGXma_RsV8-7" target="GvtacGix6wBGXma_RsV8-8">
          <mxGeometry relative="1" as="geometry" />
        </mxCell>
        <mxCell id="GvtacGix6wBGXma_RsV8-7" value="Generar Factura" style="rounded=1;whiteSpace=wrap;html=1;" vertex="1" parent="1">
          <mxGeometry x="890" y="460" width="120" height="60" as="geometry" />
        </mxCell>
        <mxCell id="GvtacGix6wBGXma_RsV8-8" value="" style="ellipse;whiteSpace=wrap;html=1;aspect=fixed;" vertex="1" parent="1">
          <mxGeometry x="810" y="470" width="40" height="40" as="geometry" />
        </mxCell>
        <mxCell id="GvtacGix6wBGXma_RsV8-19" value="Inicio" style="text;html=1;align=center;verticalAlign=middle;whiteSpace=wrap;rounded=0;" vertex="1" parent="1">
          <mxGeometry x="280" y="290" width="60" height="30" as="geometry" />
        </mxCell>
        <mxCell id="GvtacGix6wBGXma_RsV8-20" value="Final" style="text;html=1;align=center;verticalAlign=middle;whiteSpace=wrap;rounded=0;" vertex="1" parent="1">
          <mxGeometry x="800" y="440" width="60" height="30" as="geometry" />
        </mxCell>
        <mxCell id="GvtacGix6wBGXma_RsV8-21" value="&lt;font style=&quot;font-size: 18px;&quot;&gt;&lt;b&gt;Diagrama de Actividades&lt;/b&gt;&lt;/font&gt;" style="text;html=1;align=center;verticalAlign=middle;whiteSpace=wrap;rounded=0;" vertex="1" parent="1">
          <mxGeometry x="510" y="40" width="180" height="30" as="geometry" />
        </mxCell>
        <mxCell id="GvtacGix6wBGXma_RsV8-23" style="edgeStyle=orthogonalEdgeStyle;rounded=0;orthogonalLoop=1;jettySize=auto;html=1;entryX=1;entryY=0.5;entryDx=0;entryDy=0;" edge="1" parent="1" source="GvtacGix6wBGXma_RsV8-22" target="GvtacGix6wBGXma_RsV8-7">
          <mxGeometry relative="1" as="geometry" />
        </mxCell>
        <mxCell id="GvtacGix6wBGXma_RsV8-22" value="Preparar y Servir Orden" style="rounded=1;whiteSpace=wrap;html=1;" vertex="1" parent="1">
          <mxGeometry x="980" y="310" width="120" height="60" as="geometry" />
        </mxCell>
      </root>
    </mxGraphModel>
  </diagram>
</mxfile>
